<?xml version="1.0" encoding="UTF-8" standalone="no"?><!DOCTYPE svg PUBLIC "-//W3C//DTD SVG 1.1//EN" "http://www.w3.org/Graphics/SVG/1.1/DTD/svg11.dtd"><svg width="100%" height="100%" viewBox="0 0 2550 1110" version="1.1" xmlns="http://www.w3.org/2000/svg" xmlns:xlink="http://www.w3.org/1999/xlink" xml:space="preserve" xmlns:serif="http://www.serif.com/" style="fill-rule:evenodd;clip-rule:evenodd;stroke-linejoin:round;stroke-miterlimit:2;"><rect id="Horizontal-Logo" serif:id="Horizontal Logo" x="0" y="0" width="2550" height="1110" style="fill:none;"/><clipPath id="_clip1"><rect id="Horizontal-Logo1" serif:id="Horizontal Logo" x="0" y="0" width="2550" height="1110"/></clipPath><g clip-path="url(#_clip1)"><g><path d="M488.723,812.786l-2.115,0c-4.23,7.051 -9.342,13.837 -15.335,20.359c-5.993,6.522 -13.044,12.251 -21.152,17.186c-8.108,4.936 -17.274,8.902 -27.498,11.898c-10.224,2.997 -21.505,4.495 -33.843,4.495c-16.569,0 -32.257,-3.437 -47.064,-10.312c-14.807,-6.874 -27.762,-16.393 -38.867,-28.555c-11.105,-12.162 -19.918,-26.705 -26.44,-43.626c-6.522,-16.922 -9.783,-35.43 -9.783,-55.524c0,-20.095 3.261,-38.603 9.783,-55.524c6.522,-16.922 15.335,-31.464 26.44,-43.626c11.105,-12.162 24.061,-21.681 38.867,-28.555c14.807,-6.874 30.494,-10.312 47.064,-10.312c24.678,0 45.125,5.288 61.341,15.864c16.217,10.576 28.379,23.091 36.487,37.545l2.115,0l-2.115,-35.959l0,-128.499l33.843,0l0,378.623l-31.728,0l0,-45.477Zm-94.127,23.267c12.339,0 24.237,-2.38 35.694,-7.139c11.457,-4.759 21.505,-11.81 30.142,-21.152c8.637,-9.342 15.512,-20.623 20.623,-33.843c5.112,-13.22 7.668,-28.291 7.668,-45.213c0,-16.922 -2.556,-32.081 -7.668,-45.477c-5.112,-13.396 -11.986,-24.678 -20.623,-33.843c-8.637,-9.166 -18.684,-16.129 -30.142,-20.888c-11.457,-4.759 -23.355,-7.139 -35.694,-7.139c-12.339,0 -24.237,2.468 -35.694,7.403c-11.457,4.936 -21.505,12.074 -30.142,21.417c-8.637,9.342 -15.512,20.623 -20.623,33.843c-5.112,13.22 -7.668,28.115 -7.668,44.684c0,16.569 2.556,31.552 7.668,44.948c5.112,13.396 11.986,24.678 20.623,33.843c8.637,9.166 18.684,16.217 30.142,21.152c11.457,4.936 23.355,7.403 35.694,7.403Z" style="fill:#787878;fill-rule:nonzero;"/><path d="M771.633,809.613l-2.115,0c-4.23,7.756 -9.342,15.071 -15.335,21.945c-5.993,6.874 -12.956,12.956 -20.888,18.244c-7.932,5.288 -16.745,9.43 -26.44,12.427c-9.695,2.997 -20.006,4.495 -30.935,4.495c-15.864,0 -29.789,-2.556 -41.775,-7.668c-11.986,-5.112 -21.857,-12.339 -29.613,-21.681c-7.756,-9.342 -13.573,-20.447 -17.451,-33.315c-3.878,-12.868 -5.817,-27.057 -5.817,-42.569l0,-162.343l33.843,0l0,156.526c0,27.498 6.081,47.769 18.244,60.812c12.162,13.044 29.349,19.566 51.558,19.566c12.339,0 23.708,-2.82 34.108,-8.461c10.4,-5.641 19.301,-13.044 26.705,-22.21c7.403,-9.166 13.22,-19.83 17.451,-31.993c4.23,-12.162 6.346,-24.766 6.346,-37.809l0,-136.431l33.843,0l0,259.114l-31.728,0l0,-48.65Z" style="fill:#787878;fill-rule:nonzero;"/><path d="M1089.973,792.692c-4.583,10.576 -10.312,20.359 -17.186,29.349c-6.874,8.99 -14.895,16.745 -24.061,23.267c-9.166,6.522 -19.742,11.722 -31.728,15.6c-11.986,3.878 -25.206,5.817 -39.66,5.817c-18.684,0 -35.959,-3.525 -51.823,-10.576c-15.864,-7.051 -29.525,-16.745 -40.982,-29.084c-11.457,-12.339 -20.447,-26.881 -26.969,-43.626c-6.522,-16.745 -9.783,-34.989 -9.783,-54.731c0,-19.742 3.261,-37.986 9.783,-54.731c6.522,-16.745 15.512,-31.288 26.969,-43.626c11.457,-12.339 25.118,-22.033 40.982,-29.084c15.864,-7.051 33.138,-10.576 51.823,-10.576c14.454,0 27.586,1.851 39.396,5.552c11.81,3.702 22.386,8.902 31.728,15.6c9.342,6.698 17.362,14.454 24.061,23.267c6.698,8.813 12.162,18.508 16.393,29.084l-30.142,13.22c-7.756,-17.979 -18.508,-31.816 -32.257,-41.511c-13.749,-9.695 -30.671,-14.542 -50.765,-14.542c-11.986,0 -23.62,2.556 -34.901,7.668c-11.281,5.112 -21.328,12.339 -30.142,21.681c-8.813,9.342 -15.864,20.623 -21.152,33.843c-5.288,13.22 -7.932,27.938 -7.932,44.155c0,16.217 2.644,30.935 7.932,44.155c5.288,13.22 12.339,24.501 21.152,33.843c8.813,9.342 18.861,16.569 30.142,21.681c11.281,5.112 22.915,7.668 34.901,7.668c20.095,0 37.193,-4.847 51.294,-14.542c14.101,-9.695 25.03,-23.532 32.786,-41.511l30.142,12.691Z" style="fill:#787878;fill-rule:nonzero;"/><path d="M1134.921,479.64l33.843,0l0,251.182l131.143,-131.672l42.833,0l0,2.115l-97.3,97.829l106.818,157.055l0,2.115l-39.66,0l-91.483,-135.374l-52.352,52.352l0,83.022l-33.843,0l0,-378.623Z" style="fill:#787878;fill-rule:nonzero;"/><path d="M1577.001,824.949l-3.173,0c-7.051,11.281 -17.803,21.064 -32.257,29.349c-14.454,8.285 -31.728,12.427 -51.823,12.427c-16.569,0 -32.345,-3.437 -47.328,-10.312c-14.983,-6.874 -28.115,-16.481 -39.396,-28.82c-11.281,-12.339 -20.271,-26.881 -26.969,-43.626c-6.698,-16.745 -10.047,-35.165 -10.047,-55.26c0,-20.095 3.349,-38.515 10.047,-55.26c6.698,-16.745 15.688,-31.288 26.969,-43.626c11.281,-12.339 24.413,-21.945 39.396,-28.82c14.983,-6.874 30.759,-10.312 47.328,-10.312c20.095,0 37.369,4.142 51.823,12.427c14.454,8.285 25.206,18.067 32.257,29.349l3.173,0l-3.173,-35.959l0,-116.866l58.697,0l0,378.623l-55.524,0l0,-33.315Zm-76.148,-12.691c9.871,0 19.478,-1.939 28.82,-5.817c9.342,-3.878 17.451,-9.342 24.325,-16.393c6.874,-7.051 12.427,-15.776 16.657,-26.176c4.23,-10.4 6.346,-22.122 6.346,-35.165c0,-13.044 -2.115,-24.766 -6.346,-35.165c-4.23,-10.4 -9.783,-19.125 -16.657,-26.176c-6.874,-7.051 -14.983,-12.515 -24.325,-16.393c-9.342,-3.878 -18.949,-5.817 -28.82,-5.817c-10.224,0 -19.918,1.939 -29.084,5.817c-9.166,3.878 -17.186,9.43 -24.061,16.657c-6.874,7.227 -12.427,15.952 -16.657,26.176c-4.23,10.224 -6.346,21.857 -6.346,34.901c0,13.044 2.115,24.678 6.346,34.901c4.23,10.224 9.783,18.949 16.657,26.176c6.874,7.227 14.895,12.779 24.061,16.657c9.166,3.878 18.861,5.817 29.084,5.817Z" style="fill:#79c257;fill-rule:nonzero;"/><path d="M1691.752,599.149l55.524,0l0,39.131l3.173,0c3.173,-6.698 7.491,-12.956 12.956,-18.773c5.464,-5.817 11.634,-10.763 18.508,-14.84c6.874,-4.082 14.101,-7.431 21.681,-10.047c7.58,-2.622 14.895,-3.933 21.945,-3.933c8.461,0 15.688,0.799 21.681,2.396c5.993,1.597 11.457,3.795 16.393,6.594l-16.922,53.409c-3.878,-1.763 -8.196,-3.085 -12.956,-3.966c-4.759,-0.881 -10.488,-1.322 -17.186,-1.322c-9.518,0 -18.244,1.95 -26.176,5.85c-7.932,3.894 -14.895,9.207 -20.888,15.938c-5.993,6.731 -10.664,14.705 -14.013,23.92c-3.349,9.21 -5.024,18.954 -5.024,29.233l0,135.522l-58.697,0l0,-259.114Z" style="fill:#79c257;fill-rule:nonzero;"/><path d="M2000.044,590.689c19.742,0 37.898,3.437 54.467,10.312c16.569,6.874 30.847,16.481 42.833,28.82c11.986,12.339 21.328,26.969 28.027,43.891c6.698,16.922 10.047,35.254 10.047,54.996c0,19.742 -3.349,38.074 -10.047,54.996c-6.698,16.922 -16.04,31.552 -28.027,43.891c-11.986,12.339 -26.264,21.945 -42.833,28.82c-16.569,6.874 -34.725,10.312 -54.467,10.312c-19.742,0 -37.898,-3.437 -54.467,-10.312c-16.569,-6.874 -30.847,-16.481 -42.833,-28.82c-11.986,-12.339 -21.328,-26.969 -28.027,-43.891c-6.698,-16.922 -10.047,-35.254 -10.047,-54.996c0,-19.742 3.349,-38.074 10.047,-54.996c6.698,-16.922 16.04,-31.552 28.027,-43.891c11.986,-12.339 26.264,-21.945 42.833,-28.82c16.569,-6.874 34.725,-10.312 54.467,-10.312Zm0,221.569c9.871,0 19.389,-1.939 28.555,-5.817c9.166,-3.878 17.362,-9.342 24.589,-16.393c7.227,-7.051 12.956,-15.776 17.186,-26.176c4.23,-10.4 6.346,-22.122 6.346,-35.165c0,-13.044 -2.115,-24.766 -6.346,-35.165c-4.23,-10.4 -9.959,-19.125 -17.186,-26.176c-7.227,-7.051 -15.423,-12.515 -24.589,-16.393c-9.166,-3.878 -18.684,-5.817 -28.555,-5.817c-9.871,0 -19.389,1.939 -28.555,5.817c-9.166,3.878 -17.362,9.342 -24.589,16.393c-7.227,7.051 -12.956,15.776 -17.186,26.176c-4.23,10.4 -6.346,22.122 -6.346,35.165c0,13.044 2.115,24.766 6.346,35.165c4.23,10.4 9.959,19.125 17.186,26.176c7.227,7.051 15.423,12.515 24.589,16.393c9.166,3.878 18.684,5.817 28.555,5.817Z" style="fill:#79c257;fill-rule:nonzero;"/><path d="M2208.393,554.73c-11.281,0 -20.711,-3.878 -28.291,-11.634c-7.58,-7.756 -11.369,-17.098 -11.369,-28.027c0,-10.929 3.79,-20.271 11.369,-28.027c7.58,-7.756 17.01,-11.634 28.291,-11.634c10.929,0 20.183,3.878 27.762,11.634c7.58,7.756 11.369,17.098 11.369,28.027c0,10.929 -3.79,20.271 -11.369,28.027c-7.58,7.756 -16.834,11.634 -27.762,11.634Zm-29.613,303.533l0,-259.114l58.697,0l0,259.114l-58.697,0Z" style="fill:#79c257;fill-rule:nonzero;"/><path d="M2494.476,824.949l-3.173,0c-7.051,11.281 -17.803,21.064 -32.257,29.349c-14.454,8.285 -31.728,12.427 -51.823,12.427c-16.569,0 -32.345,-3.437 -47.328,-10.312c-14.983,-6.874 -28.115,-16.481 -39.396,-28.82c-11.281,-12.339 -20.271,-26.881 -26.969,-43.626c-6.698,-16.745 -10.047,-35.165 -10.047,-55.26c0,-20.095 3.349,-38.515 10.047,-55.26c6.698,-16.745 15.688,-31.288 26.969,-43.626c11.281,-12.339 24.413,-21.945 39.396,-28.82c14.983,-6.874 30.759,-10.312 47.328,-10.312c20.095,0 37.369,4.142 51.823,12.427c14.454,8.285 25.206,18.067 32.257,29.349l3.173,0l-3.173,-35.959l0,-116.866l58.697,0l0,378.623l-55.524,0l0,-33.315Zm-76.148,-12.691c9.871,0 19.478,-1.939 28.82,-5.817c9.342,-3.878 17.451,-9.342 24.325,-16.393c6.874,-7.051 12.427,-15.776 16.657,-26.176c4.23,-10.4 6.346,-22.122 6.346,-35.165c0,-13.044 -2.115,-24.766 -6.346,-35.165c-4.23,-10.4 -9.783,-19.125 -16.657,-26.176c-6.874,-7.051 -14.983,-12.515 -24.325,-16.393c-9.342,-3.878 -18.949,-5.817 -28.82,-5.817c-10.224,0 -19.918,1.939 -29.084,5.817c-9.166,3.878 -17.186,9.43 -24.061,16.657c-6.874,7.227 -12.427,15.952 -16.657,26.176c-4.23,10.224 -6.346,21.857 -6.346,34.901c0,13.044 2.115,24.678 6.346,34.901c4.23,10.224 9.783,18.949 16.657,26.176c6.874,7.227 14.895,12.779 24.061,16.657c9.166,3.878 18.861,5.817 29.084,5.817Z" style="fill:#79c257;fill-rule:nonzero;"/></g><path d="M322.716,522.17l-85.542,39.367l-237.174,-138.029l0,-85.367" style="fill:#79c257;"/><path d="M322.72,522.17l-322.72,180.205l0,88.031l388.115,-230.492" style="fill:#79c257;"/><path d="M-0,423.508l69.653,52.915l0,121.636l-69.653,46.159" style="fill:#79c257;"/><path d="M152.004,321.758l85.542,39.367l151.776,-94.509l15.745,-89.473" style="fill:#79c257;"/><path d="M152,321.758l322.72,180.205l0,88.031l-388.115,-230.492" style="fill:#79c257;"/><path d="M474.72,-0l-69.653,52.915l0,403.285l69.653,46.159" style="fill:#79c257;"/><g><path d="M291.66,958.274l0,-43.475l8.913,0l0,43.475l-8.913,0Zm-13.125,-39.519l0,-8.345l35.107,0l0,8.345l-35.107,0Z" style="fill:#383838;fill-rule:nonzero;"/><path d="M397.371,958.274l0,-47.864l8.924,0l0,47.864l-8.924,0Zm-29.848,0l0,-47.864l8.913,0l0,47.864l-8.913,0Zm5.214,-20.244l0,-8.345l28.344,0l0,8.345l-28.344,0Z" style="fill:#383838;fill-rule:nonzero;"/><path d="M458.711,958.274l0,-47.864l29.035,0l0,8.356l-20.289,0l0,31.152l20.657,0l0,8.356l-29.402,0Zm4.824,-20.144l0,-7.532l23.163,0l0,7.532l-23.163,0Z" style="fill:#383838;fill-rule:nonzero;"/><path d="M579.174,958.274l0,-47.864l9.537,0l20.59,32.489l0.223,0l-0.256,-8.49l0,-23.999l8.69,0l0,47.864l-8.323,0l-21.793,-33.904l-0.234,0l0.256,8.468l0,25.436l-8.69,0Z" style="fill:#383838;fill-rule:nonzero;"/><path d="M693.536,959.41c-6.882,0 -12.731,-2.351 -17.548,-7.053c-4.817,-4.702 -7.226,-10.731 -7.226,-18.089c0,-7.357 2.421,-13.362 7.264,-18.015c4.843,-4.654 10.68,-6.981 17.509,-6.981c6.808,0 12.636,2.34 17.486,7.019c4.85,4.679 7.276,10.674 7.276,17.983c0,7.257 -2.407,13.261 -7.22,18.011c-4.813,4.75 -10.661,7.125 -17.542,7.125Zm-0.002,-8.613c4.499,0 8.256,-1.56 11.271,-4.679c3.016,-3.12 4.524,-7.067 4.524,-11.843c0,-4.813 -1.519,-8.748 -4.557,-11.804c-3.038,-3.057 -6.785,-4.585 -11.242,-4.585c-4.449,0 -8.194,1.538 -11.236,4.613c-3.042,3.075 -4.562,7 -4.562,11.773c0,4.793 1.509,8.746 4.527,11.858c3.018,3.112 6.776,4.668 11.275,4.668Z" style="fill:#383838;fill-rule:nonzero;"/><path d="M786.196,959.41c-2.875,0 -5.43,-0.455 -7.666,-1.365c-2.236,-0.91 -4.094,-2.169 -5.576,-3.777c-1.482,-1.608 -2.6,-3.307 -3.354,-5.097c-0.754,-1.79 -1.131,-2.685 -1.131,-2.685l7.81,-3.197c0,0 0.265,0.62 0.796,1.861c0.531,1.24 1.243,2.369 2.134,3.387c0.891,1.017 1.968,1.801 3.231,2.351c1.263,0.55 2.678,0.825 4.245,0.825c2.377,0 4.316,-0.611 5.816,-1.833c1.501,-1.222 2.251,-2.828 2.251,-4.819c0,-1.738 -0.826,-3.222 -2.479,-4.451c-1.653,-1.229 -4.451,-2.498 -8.395,-3.805c-4.828,-1.604 -8.317,-3.532 -10.467,-5.782c-2.15,-2.251 -3.225,-5.036 -3.225,-8.356c0,-3.825 1.504,-7.014 4.512,-9.565c3.008,-2.551 6.878,-3.827 11.609,-3.827c2.503,0 4.748,0.362 6.735,1.086c1.987,0.724 3.692,1.76 5.114,3.109c1.422,1.348 2.455,2.676 3.097,3.983c0.643,1.307 0.964,1.961 0.964,1.961l-7.587,3.153c0,0 -0.188,-0.364 -0.563,-1.092c-0.375,-0.728 -0.96,-1.471 -1.755,-2.228c-0.795,-0.758 -1.717,-1.335 -2.769,-1.732c-1.051,-0.397 -2.241,-0.596 -3.571,-0.596c-2.072,0 -3.762,0.49 -5.07,1.471c-1.307,0.98 -1.961,2.269 -1.961,3.866c0,1.426 0.594,2.665 1.782,3.716c1.188,1.051 4.122,2.331 8.802,3.838c4.776,1.493 8.297,3.495 10.562,6.005c2.266,2.511 3.398,5.504 3.398,8.98c0,4.442 -1.616,7.988 -4.847,10.64c-3.231,2.652 -7.379,3.978 -12.445,3.978Z" style="fill:#383838;fill-rule:nonzero;"/><path d="M866.705,958.274l0,-43.475l8.913,0l0,43.475l-8.913,0Zm-13.125,-39.519l0,-8.345l35.107,0l0,8.345l-35.107,0Z" style="fill:#383838;fill-rule:nonzero;"/><path d="M940.072,958.274l18.317,-47.864l8.512,0l18.228,47.864l-9.772,0l-10.863,-31.096l-1.838,-5.939l-0.222,0l-1.838,5.916l-10.963,31.118l-9.559,0Zm8.49,-10.585l2.529,-6.907l21.871,0l2.629,6.907l-27.029,0Z" style="fill:#383838;fill-rule:nonzero;"/><path d="M1035.378,958.274l0,-47.864l8.913,0l0,39.508l20.501,0l0,8.356l-29.414,0Z" style="fill:#383838;fill-rule:nonzero;"/><path d="M1140.922,959.41c-7.071,-0.074 -12.993,-2.516 -17.765,-7.325c-4.772,-4.81 -7.159,-10.754 -7.159,-17.833c0,-7.138 2.403,-13.086 7.209,-17.843c4.806,-4.757 10.733,-7.136 17.782,-7.136c2.251,0 4.412,0.243 6.484,0.73c2.072,0.486 3.944,1.184 5.615,2.094c1.671,0.91 3.055,1.883 4.15,2.919c1.096,1.036 1.644,1.554 1.644,1.554l-5.95,6.162c0,0 -0.407,-0.392 -1.22,-1.176c-0.813,-0.784 -1.753,-1.471 -2.819,-2.061c-1.066,-0.591 -2.256,-1.042 -3.571,-1.354c-1.315,-0.312 -2.7,-0.468 -4.156,-0.468c-4.635,0 -8.505,1.532 -11.609,4.596c-3.105,3.064 -4.657,7.094 -4.657,12.089c0,4.995 1.565,9.056 4.696,12.183c3.131,3.127 7.002,4.69 11.615,4.69c4.167,0 7.582,-1.09 10.245,-3.27c2.663,-2.18 4.195,-5.216 4.596,-9.108l-15.298,0l0,-7.253l23.843,0l0.045,4.256c0,7.108 -2.195,12.811 -6.585,17.108c-4.39,4.297 -10.102,6.445 -17.136,6.445Z" style="fill:#383838;fill-rule:nonzero;"/><rect x="1215.693" y="910.41" width="9.013" height="47.864" style="fill:#383838;fill-rule:nonzero;"/><path d="M1300.469,959.41c-7.168,0 -13.121,-2.384 -17.86,-7.153c-4.739,-4.769 -7.109,-10.77 -7.109,-18.004c0,-7.257 2.377,-13.234 7.13,-17.932c4.754,-4.698 10.693,-7.047 17.816,-7.047c2.251,0 4.438,0.297 6.562,0.892c2.124,0.594 4.07,1.424 5.838,2.49c1.768,1.066 3.144,2.117 4.128,3.153c0.984,1.036 1.476,1.554 1.476,1.554l-6.072,6.05c0,0 -0.377,-0.403 -1.131,-1.209c-0.754,-0.806 -1.669,-1.541 -2.747,-2.206c-1.077,-0.665 -2.286,-1.183 -3.627,-1.554c-1.34,-0.372 -2.802,-0.557 -4.384,-0.557c-4.553,0 -8.364,1.505 -11.431,4.515c-3.068,3.01 -4.602,6.953 -4.602,11.83c0,4.865 1.521,8.839 4.562,11.922c3.042,3.082 6.858,4.624 11.448,4.624c1.627,0 3.172,-0.228 4.635,-0.685c1.463,-0.457 2.839,-1.099 4.128,-1.928c1.289,-0.828 2.284,-1.647 2.986,-2.457c0.702,-0.81 1.053,-1.214 1.053,-1.214l6.239,6.172c0,0 -0.539,0.592 -1.616,1.777c-1.077,1.185 -2.555,2.334 -4.434,3.448c-1.879,1.114 -3.914,1.979 -6.106,2.596c-2.191,0.617 -4.486,0.925 -6.886,0.925Z" style="fill:#383838;fill-rule:nonzero;"/><path d="M1429.077,959.41c-2.875,0 -5.43,-0.455 -7.666,-1.365c-2.236,-0.91 -4.094,-2.169 -5.576,-3.777c-1.482,-1.608 -2.6,-3.307 -3.354,-5.097c-0.754,-1.79 -1.131,-2.685 -1.131,-2.685l7.81,-3.197c0,0 0.265,0.62 0.796,1.861c0.531,1.24 1.243,2.369 2.134,3.387c0.891,1.017 1.968,1.801 3.231,2.351c1.263,0.55 2.678,0.825 4.245,0.825c2.377,0 4.316,-0.611 5.816,-1.833c1.501,-1.222 2.251,-2.828 2.251,-4.819c0,-1.738 -0.826,-3.222 -2.479,-4.451c-1.653,-1.229 -4.451,-2.498 -8.395,-3.805c-4.828,-1.604 -8.317,-3.532 -10.467,-5.782c-2.15,-2.251 -3.225,-5.036 -3.225,-8.356c0,-3.825 1.504,-7.014 4.512,-9.565c3.008,-2.551 6.878,-3.827 11.609,-3.827c2.503,0 4.748,0.362 6.735,1.086c1.987,0.724 3.692,1.76 5.114,3.109c1.422,1.348 2.455,2.676 3.097,3.983c0.643,1.307 0.964,1.961 0.964,1.961l-7.587,3.153c0,0 -0.188,-0.364 -0.563,-1.092c-0.375,-0.728 -0.96,-1.471 -1.755,-2.228c-0.795,-0.758 -1.717,-1.335 -2.769,-1.732c-1.051,-0.397 -2.241,-0.596 -3.571,-0.596c-2.072,0 -3.762,0.49 -5.07,1.471c-1.307,0.98 -1.961,2.269 -1.961,3.866c0,1.426 0.594,2.665 1.782,3.716c1.188,1.051 4.122,2.331 8.802,3.838c4.776,1.493 8.297,3.495 10.562,6.005c2.266,2.511 3.398,5.504 3.398,8.98c0,4.442 -1.616,7.988 -4.847,10.64c-3.231,2.652 -7.379,3.978 -12.445,3.978Z" style="fill:#383838;fill-rule:nonzero;"/><rect x="1496.651" y="910.41" width="9.013" height="47.864" style="fill:#383838;fill-rule:nonzero;"/><path d="M1556.192,958.274l0,-47.864l15.999,0c7.294,0 13.171,2.188 17.632,6.563c4.46,4.375 6.691,10.144 6.691,17.308c0,7.231 -2.227,13.038 -6.68,17.42c-4.453,4.382 -10.334,6.573 -17.643,6.573l-15.999,0Zm8.913,-8.089l6.674,0c4.858,0.03 8.69,-1.35 11.498,-4.139c2.808,-2.789 4.212,-6.692 4.212,-11.708c0,-4.959 -1.408,-8.804 -4.223,-11.534c-2.815,-2.73 -6.644,-4.095 -11.487,-4.095l-6.674,0l0,31.475Z" style="fill:#383838;fill-rule:nonzero;"/><path d="M1647.297,958.274l0,-47.864l29.035,0l0,8.356l-20.289,0l0,31.152l20.657,0l0,8.356l-29.402,0Zm4.824,-20.144l0,-7.532l23.163,0l0,7.532l-23.163,0Z" style="fill:#383838;fill-rule:nonzero;"/><path d="M1792.8,959.41c-6.882,0 -12.731,-2.351 -17.548,-7.053c-4.817,-4.702 -7.226,-10.731 -7.226,-18.089c0,-7.357 2.421,-13.362 7.264,-18.015c4.843,-4.654 10.68,-6.981 17.509,-6.981c6.808,0 12.636,2.34 17.486,7.019c4.85,4.679 7.276,10.674 7.276,17.983c0,7.257 -2.407,13.261 -7.22,18.011c-4.813,4.75 -10.661,7.125 -17.542,7.125Zm-0.002,-8.613c4.499,0 8.256,-1.56 11.271,-4.679c3.016,-3.12 4.524,-7.067 4.524,-11.843c0,-4.813 -1.519,-8.748 -4.557,-11.804c-3.038,-3.057 -6.785,-4.585 -11.242,-4.585c-4.449,0 -8.194,1.538 -11.236,4.613c-3.042,3.075 -4.562,7 -4.562,11.773c0,4.793 1.509,8.746 4.527,11.858c3.018,3.112 6.776,4.668 11.275,4.668Z" style="fill:#383838;fill-rule:nonzero;"/><path d="M1868.368,958.274l0,-47.864l28.433,0l0,8.356l-19.442,0l0,39.508l-8.991,0Zm5.036,-19.086l0,-7.888l22.44,0l0,7.888l-22.44,0Z" style="fill:#383838;fill-rule:nonzero;"/><path d="M1987.984,958.274l18.317,-47.864l8.512,0l18.228,47.864l-9.772,0l-10.863,-31.096l-1.838,-5.939l-0.222,0l-1.838,5.916l-10.963,31.118l-9.559,0Zm8.49,-10.585l2.529,-6.907l21.871,0l2.629,6.907l-27.029,0Z" style="fill:#383838;fill-rule:nonzero;"/><path d="M2083.29,958.274l0,-47.864l9.537,0l20.59,32.489l0.223,0l-0.256,-8.49l0,-23.999l8.69,0l0,47.864l-8.323,0l-21.793,-33.904l-0.234,0l0.256,8.468l0,25.436l-8.69,0Z" style="fill:#383838;fill-rule:nonzero;"/><path d="M2172.612,958.274l0,-47.864l15.999,0c7.294,0 13.171,2.188 17.632,6.563c4.46,4.375 6.691,10.144 6.691,17.308c0,7.231 -2.227,13.038 -6.68,17.42c-4.453,4.382 -10.334,6.573 -17.643,6.573l-15.999,0Zm8.913,-8.089l6.674,0c4.858,0.03 8.69,-1.35 11.498,-4.139c2.808,-2.789 4.212,-6.692 4.212,-11.708c0,-4.959 -1.408,-8.804 -4.223,-11.534c-2.815,-2.73 -6.644,-4.095 -11.487,-4.095l-6.674,0l0,31.475Z" style="fill:#383838;fill-rule:nonzero;"/><path d="M2263.717,958.274l0,-47.864l17.96,0c4.457,0 8.256,1.389 11.398,4.167c3.142,2.778 4.713,6.402 4.713,10.874c0,4.353 -1.521,7.925 -4.562,10.718c-3.042,2.793 -7.028,4.189 -11.96,4.189l-13.626,0l0,-6.83l13.259,0c2.176,0 4.04,-0.723 5.593,-2.168c1.553,-1.446 2.329,-3.304 2.329,-5.576c0,-2.043 -0.743,-3.779 -2.228,-5.209c-1.486,-1.43 -3.272,-2.145 -5.359,-2.145l-8.602,0l0,39.842l-8.913,0Zm26.483,0l-14.195,-21.615l9.504,-0.334l15.197,21.949l-10.506,0Z" style="fill:#383838;fill-rule:nonzero;"/><path d="M2375.963,959.41c-6.882,0 -12.731,-2.351 -17.548,-7.053c-4.817,-4.702 -7.226,-10.731 -7.226,-18.089c0,-7.357 2.421,-13.362 7.264,-18.015c4.843,-4.654 10.68,-6.981 17.509,-6.981c6.808,0 12.636,2.34 17.486,7.019c4.85,4.679 7.276,10.674 7.276,17.983c0,7.257 -2.407,13.261 -7.22,18.011c-4.813,4.75 -10.661,7.125 -17.542,7.125Zm-0.002,-8.613c4.499,0 8.256,-1.56 11.271,-4.679c3.016,-3.12 4.524,-7.067 4.524,-11.843c0,-4.813 -1.519,-8.748 -4.557,-11.804c-3.038,-3.057 -6.785,-4.585 -11.242,-4.585c-4.449,0 -8.194,1.538 -11.236,4.613c-3.042,3.075 -4.562,7 -4.562,11.773c0,4.793 1.509,8.746 4.527,11.858c3.018,3.112 6.776,4.668 11.275,4.668Z" style="fill:#383838;fill-rule:nonzero;"/><rect x="2450.138" y="910.41" width="9.013" height="47.864" style="fill:#383838;fill-rule:nonzero;"/><path d="M2509.679,958.274l0,-47.864l15.999,0c7.294,0 13.171,2.188 17.632,6.563c4.46,4.375 6.691,10.144 6.691,17.308c0,7.231 -2.227,13.038 -6.68,17.42c-4.453,4.382 -10.334,6.573 -17.643,6.573l-15.999,0Zm8.913,-8.089l6.674,0c4.858,0.03 8.69,-1.35 11.498,-4.139c2.808,-2.789 4.212,-6.692 4.212,-11.708c0,-4.959 -1.408,-8.804 -4.223,-11.534c-2.815,-2.73 -6.644,-4.095 -11.487,-4.095l-6.674,0l0,31.475Z" style="fill:#383838;fill-rule:nonzero;"/></g><rect x="222.387" y="876.936" width="2327.613" height="16.288" style="fill:#0068aa;"/></g></svg>