<?xml version="1.0" encoding="UTF-8" standalone="no"?>
<!DOCTYPE svg PUBLIC "-//W3C//DTD SVG 1.1//EN" "http://www.w3.org/Graphics/SVG/1.1/DTD/svg11.dtd">
<svg width="100%" height="100%" viewBox="0 0 2308 3840" version="1.1" xmlns="http://www.w3.org/2000/svg" xmlns:xlink="http://www.w3.org/1999/xlink" xml:space="preserve" xmlns:serif="http://www.serif.com/" style="fill-rule:evenodd;clip-rule:evenodd;stroke-linejoin:round;stroke-miterlimit:2;">
    <g transform="matrix(1,0,0,1,-2600,0)">
        <g id="Icon-Only" serif:id="Icon Only" transform="matrix(0.600831,0,0,1,1037.839662,0)">
            <rect x="2600" y="0" width="3840" height="3840" style="fill:none;"/>
            <clipPath id="_clip1">
                <rect x="2600" y="0" width="3840" height="3840"/>
            </clipPath>
            <g clip-path="url(#_clip1)">
                <g transform="matrix(8.085898,0,0,4.858257,2600,0)">
                    <g transform="matrix(1.194976,0,0,1.194976,-292.020753,-181.228341)">
                        <path d="M514.435,588.63L442.85,621.574L244.374,506.065L244.374,434.627" style="fill:rgb(121,194,87);"/>
                    </g>
                    <g transform="matrix(1.194976,0,0,1.194976,-292.020753,-181.228341)">
                        <path d="M514.437,588.63L244.374,739.432L244.374,813.1L569.163,620.216" style="fill:rgb(121,194,87);"/>
                    </g>
                    <g transform="matrix(1.194976,0,0,1.194976,-292.020753,-181.228341)">
                        <path d="M244.374,506.065L302.662,550.347L302.662,652.136L244.374,690.764" style="fill:rgb(121,194,87);"/>
                    </g>
                    <g transform="matrix(-1.194976,0,0,1.194976,766.740385,-381.64023)">
                        <path d="M514.435,588.63L442.85,621.574L315.838,542.485L302.662,467.61" style="fill:rgb(121,194,87);"/>
                    </g>
                    <g transform="matrix(-1.194976,0,0,1.194976,766.740385,-381.64023)">
                        <path d="M514.437,588.63L244.374,739.432L244.374,813.1L569.163,620.216" style="fill:rgb(121,194,87);"/>
                    </g>
                    <g transform="matrix(-1.194976,0,0,1.194976,766.740385,-323.086415)">
                        <path d="M244.374,270.371L302.662,314.652L302.662,652.136L244.374,690.764" style="fill:rgb(121,194,87);"/>
                    </g>
                </g>
            </g>
        </g>
    </g>
</svg>
