<?xml version="1.0" encoding="UTF-8" standalone="no"?>
<!DOCTYPE svg PUBLIC "-//W3C//DTD SVG 1.1//EN" "http://www.w3.org/Graphics/SVG/1.1/DTD/svg11.dtd">
<svg width="100%" height="100%" viewBox="0 0 2550 2121" version="1.1" xmlns="http://www.w3.org/2000/svg" xmlns:xlink="http://www.w3.org/1999/xlink" xml:space="preserve" xmlns:serif="http://www.serif.com/" style="fill-rule:evenodd;clip-rule:evenodd;stroke-linejoin:round;stroke-miterlimit:2;">
    <g transform="matrix(1,0,0,1,0,-1160)">
        <g id="Vertical-Logo" serif:id="Vertical Logo" transform="matrix(1,0,0,1.910061,0,-1055.670799)">
            <rect x="0" y="1160" width="2550" height="1110" style="fill:none;"/>
            <clipPath id="_clip1">
                <rect x="0" y="1160" width="2550" height="1110"/>
            </clipPath>
            <g clip-path="url(#_clip1)">
                <g transform="matrix(3.672248,0,0,1.922581,-2361.454289,1105.015248)">
                    <path d="M739.837,564.006L739.261,564.006C738.109,565.926 736.717,567.774 735.085,569.55C733.453,571.326 731.533,572.886 729.325,574.23C727.117,575.574 724.621,576.654 721.837,577.47C719.053,578.286 715.981,578.694 712.621,578.694C708.109,578.694 703.837,577.758 699.805,575.886C695.773,574.014 692.245,571.422 689.221,568.11C686.197,564.798 683.797,560.838 682.021,556.23C680.245,551.622 679.357,546.582 679.357,541.11C679.357,535.638 680.245,530.598 682.021,525.99C683.797,521.382 686.197,517.422 689.221,514.11C692.245,510.798 695.773,508.206 699.805,506.334C703.837,504.462 708.109,503.526 712.621,503.526C719.341,503.526 724.909,504.966 729.325,507.846C733.741,510.726 737.053,514.134 739.261,518.07L739.837,518.07L739.261,508.278L739.261,473.286L748.477,473.286L748.477,576.39L739.837,576.39L739.837,564.006ZM714.205,570.342C717.565,570.342 720.805,569.694 723.925,568.398C727.045,567.102 729.781,565.182 732.133,562.638C734.485,560.094 736.357,557.022 737.749,553.422C739.141,549.822 739.837,545.718 739.837,541.11C739.837,536.502 739.141,532.374 737.749,528.726C736.357,525.078 734.485,522.006 732.133,519.51C729.781,517.014 727.045,515.118 723.925,513.822C720.805,512.526 717.565,511.878 714.205,511.878C710.845,511.878 707.605,512.55 704.485,513.894C701.365,515.238 698.629,517.182 696.277,519.726C693.925,522.27 692.053,525.342 690.661,528.942C689.269,532.542 688.573,536.598 688.573,541.11C688.573,545.622 689.269,549.702 690.661,553.35C692.053,556.998 693.925,560.07 696.277,562.566C698.629,565.062 701.365,566.982 704.485,568.326C707.605,569.67 710.845,570.342 714.205,570.342Z" style="fill:rgb(120,120,120);fill-rule:nonzero;"/>
                    <path d="M816.877,563.142L816.301,563.142C815.149,565.254 813.757,567.246 812.125,569.118C810.493,570.99 808.597,572.646 806.437,574.086C804.277,575.526 801.877,576.654 799.237,577.47C796.597,578.286 793.789,578.694 790.813,578.694C786.493,578.694 782.701,577.998 779.437,576.606C776.173,575.214 773.485,573.246 771.373,570.702C769.261,568.158 767.677,565.134 766.621,561.63C765.565,558.126 765.037,554.262 765.037,550.038L765.037,505.83L774.253,505.83L774.253,548.454C774.253,555.942 775.909,561.462 779.221,565.014C782.533,568.566 787.213,570.342 793.261,570.342C796.621,570.342 799.717,569.574 802.549,568.038C805.381,566.502 807.805,564.486 809.821,561.99C811.837,559.494 813.421,556.59 814.573,553.278C815.725,549.966 816.301,546.534 816.301,542.982L816.301,505.83L825.517,505.83L825.517,576.39L816.877,576.39L816.877,563.142Z" style="fill:rgb(120,120,120);fill-rule:nonzero;"/>
                    <path d="M903.565,558.534C902.317,561.414 900.757,564.078 898.885,566.526C897.013,568.974 894.829,571.086 892.333,572.862C889.837,574.638 886.957,576.054 883.693,577.11C880.429,578.166 876.829,578.694 872.893,578.694C867.805,578.694 863.101,577.734 858.781,575.814C854.461,573.894 850.741,571.254 847.621,567.894C844.501,564.534 842.053,560.574 840.277,556.014C838.501,551.454 837.613,546.486 837.613,541.11C837.613,535.734 838.501,530.766 840.277,526.206C842.053,521.646 844.501,517.686 847.621,514.326C850.741,510.966 854.461,508.326 858.781,506.406C863.101,504.486 867.805,503.526 872.893,503.526C876.829,503.526 880.405,504.03 883.621,505.038C886.837,506.046 889.717,507.462 892.261,509.286C894.805,511.11 896.989,513.222 898.813,515.622C900.637,518.022 902.125,520.662 903.277,523.542L895.069,527.142C892.957,522.246 890.029,518.478 886.285,515.838C882.541,513.198 877.933,511.878 872.461,511.878C869.197,511.878 866.029,512.574 862.957,513.966C859.885,515.358 857.149,517.326 854.749,519.87C852.349,522.414 850.429,525.486 848.989,529.086C847.549,532.686 846.829,536.694 846.829,541.11C846.829,545.526 847.549,549.534 848.989,553.134C850.429,556.734 852.349,559.806 854.749,562.35C857.149,564.894 859.885,566.862 862.957,568.254C866.029,569.646 869.197,570.342 872.461,570.342C877.933,570.342 882.589,569.022 886.429,566.382C890.269,563.742 893.245,559.974 895.357,555.078L903.565,558.534Z" style="fill:rgb(120,120,120);fill-rule:nonzero;"/>
                    <path d="M915.805,473.286L925.021,473.286L925.021,541.686L960.733,505.83L972.397,505.83L972.397,506.406L945.901,533.046L974.989,575.814L974.989,576.39L964.189,576.39L939.277,539.526L925.021,553.782L925.021,576.39L915.805,576.39L915.805,473.286Z" style="fill:rgb(120,120,120);fill-rule:nonzero;"/>
                    <path d="M1036.189,567.318L1035.325,567.318C1033.405,570.39 1030.477,573.054 1026.541,575.31C1022.605,577.566 1017.901,578.694 1012.429,578.694C1007.917,578.694 1003.621,577.758 999.541,575.886C995.461,574.014 991.885,571.398 988.813,568.038C985.741,564.678 983.293,560.718 981.469,556.158C979.645,551.598 978.733,546.582 978.733,541.11C978.733,535.638 979.645,530.622 981.469,526.062C983.293,521.502 985.741,517.542 988.813,514.182C991.885,510.822 995.461,508.206 999.541,506.334C1003.621,504.462 1007.917,503.526 1012.429,503.526C1017.901,503.526 1022.605,504.654 1026.541,506.91C1030.477,509.166 1033.405,511.83 1035.325,514.902L1036.189,514.902L1035.325,505.11L1035.325,473.286L1051.309,473.286L1051.309,576.39L1036.189,576.39L1036.189,567.318ZM1015.453,563.862C1018.141,563.862 1020.757,563.334 1023.301,562.278C1025.845,561.222 1028.053,559.734 1029.925,557.814C1031.797,555.894 1033.309,553.518 1034.461,550.686C1035.613,547.854 1036.189,544.662 1036.189,541.11C1036.189,537.558 1035.613,534.366 1034.461,531.534C1033.309,528.702 1031.797,526.326 1029.925,524.406C1028.053,522.486 1025.845,520.998 1023.301,519.942C1020.757,518.886 1018.141,518.358 1015.453,518.358C1012.669,518.358 1010.029,518.886 1007.533,519.942C1005.037,520.998 1002.853,522.51 1000.981,524.478C999.109,526.446 997.597,528.822 996.445,531.606C995.293,534.39 994.717,537.558 994.717,541.11C994.717,544.662 995.293,547.83 996.445,550.614C997.597,553.398 999.109,555.774 1000.981,557.742C1002.853,559.71 1005.037,561.222 1007.533,562.278C1010.029,563.334 1012.669,563.862 1015.453,563.862Z" style="fill:rgb(121,194,87);fill-rule:nonzero;"/>
                    <path d="M1067.437,505.83L1082.557,505.83L1082.557,516.486L1083.421,516.486C1084.285,514.662 1085.461,512.958 1086.949,511.374C1088.437,509.79 1090.117,508.443 1091.989,507.333C1093.861,506.221 1095.829,505.309 1097.893,504.597C1099.957,503.883 1101.949,503.526 1103.869,503.526C1106.173,503.526 1108.141,503.743 1109.773,504.178C1111.405,504.613 1112.893,505.212 1114.237,505.974L1109.629,520.518C1108.573,520.038 1107.397,519.678 1106.101,519.438C1104.805,519.198 1103.245,519.078 1101.421,519.078C1098.829,519.078 1096.453,519.609 1094.293,520.671C1092.133,521.731 1090.237,523.178 1088.605,525.011C1086.973,526.844 1085.701,529.015 1084.789,531.525C1083.877,534.033 1083.421,536.686 1083.421,539.485L1083.421,576.39L1067.437,576.39L1067.437,505.83Z" style="fill:rgb(121,194,87);fill-rule:nonzero;"/>
                    <path d="M1151.389,503.526C1156.765,503.526 1161.709,504.462 1166.221,506.334C1170.733,508.206 1174.621,510.822 1177.885,514.182C1181.149,517.542 1183.693,521.526 1185.517,526.134C1187.341,530.742 1188.253,535.734 1188.253,541.11C1188.253,546.486 1187.341,551.478 1185.517,556.086C1183.693,560.694 1181.149,564.678 1177.885,568.038C1174.621,571.398 1170.733,574.014 1166.221,575.886C1161.709,577.758 1156.765,578.694 1151.389,578.694C1146.013,578.694 1141.069,577.758 1136.557,575.886C1132.045,574.014 1128.157,571.398 1124.893,568.038C1121.629,564.678 1119.085,560.694 1117.261,556.086C1115.437,551.478 1114.525,546.486 1114.525,541.11C1114.525,535.734 1115.437,530.742 1117.261,526.134C1119.085,521.526 1121.629,517.542 1124.893,514.182C1128.157,510.822 1132.045,508.206 1136.557,506.334C1141.069,504.462 1146.013,503.526 1151.389,503.526ZM1151.389,563.862C1154.077,563.862 1156.669,563.334 1159.165,562.278C1161.661,561.222 1163.893,559.734 1165.861,557.814C1167.829,555.894 1169.389,553.518 1170.541,550.686C1171.693,547.854 1172.269,544.662 1172.269,541.11C1172.269,537.558 1171.693,534.366 1170.541,531.534C1169.389,528.702 1167.829,526.326 1165.861,524.406C1163.893,522.486 1161.661,520.998 1159.165,519.942C1156.669,518.886 1154.077,518.358 1151.389,518.358C1148.701,518.358 1146.109,518.886 1143.613,519.942C1141.117,520.998 1138.885,522.486 1136.917,524.406C1134.949,526.326 1133.389,528.702 1132.237,531.534C1131.085,534.366 1130.509,537.558 1130.509,541.11C1130.509,544.662 1131.085,547.854 1132.237,550.686C1133.389,553.518 1134.949,555.894 1136.917,557.814C1138.885,559.734 1141.117,561.222 1143.613,562.278C1146.109,563.334 1148.701,563.862 1151.389,563.862Z" style="fill:rgb(121,194,87);fill-rule:nonzero;"/>
                    <path d="M1208.125,493.734C1205.053,493.734 1202.485,492.678 1200.421,490.566C1198.357,488.454 1197.325,485.91 1197.325,482.934C1197.325,479.958 1198.357,477.414 1200.421,475.302C1202.485,473.19 1205.053,472.134 1208.125,472.134C1211.101,472.134 1213.621,473.19 1215.685,475.302C1217.749,477.414 1218.781,479.958 1218.781,482.934C1218.781,485.91 1217.749,488.454 1215.685,490.566C1213.621,492.678 1211.101,493.734 1208.125,493.734ZM1200.061,576.39L1200.061,505.83L1216.045,505.83L1216.045,576.39L1200.061,576.39Z" style="fill:rgb(121,194,87);fill-rule:nonzero;"/>
                    <path d="M1286.029,567.318L1285.165,567.318C1283.245,570.39 1280.317,573.054 1276.381,575.31C1272.445,577.566 1267.741,578.694 1262.269,578.694C1257.757,578.694 1253.461,577.758 1249.381,575.886C1245.301,574.014 1241.725,571.398 1238.653,568.038C1235.581,564.678 1233.133,560.718 1231.309,556.158C1229.485,551.598 1228.573,546.582 1228.573,541.11C1228.573,535.638 1229.485,530.622 1231.309,526.062C1233.133,521.502 1235.581,517.542 1238.653,514.182C1241.725,510.822 1245.301,508.206 1249.381,506.334C1253.461,504.462 1257.757,503.526 1262.269,503.526C1267.741,503.526 1272.445,504.654 1276.381,506.91C1280.317,509.166 1283.245,511.83 1285.165,514.902L1286.029,514.902L1285.165,505.11L1285.165,473.286L1301.149,473.286L1301.149,576.39L1286.029,576.39L1286.029,567.318ZM1265.293,563.862C1267.981,563.862 1270.597,563.334 1273.141,562.278C1275.685,561.222 1277.893,559.734 1279.765,557.814C1281.637,555.894 1283.149,553.518 1284.301,550.686C1285.453,547.854 1286.029,544.662 1286.029,541.11C1286.029,537.558 1285.453,534.366 1284.301,531.534C1283.149,528.702 1281.637,526.326 1279.765,524.406C1277.893,522.486 1275.685,520.998 1273.141,519.942C1270.597,518.886 1267.981,518.358 1265.293,518.358C1262.509,518.358 1259.869,518.886 1257.373,519.942C1254.877,520.998 1252.693,522.51 1250.821,524.478C1248.949,526.446 1247.437,528.822 1246.285,531.606C1245.133,534.39 1244.557,537.558 1244.557,541.11C1244.557,544.662 1245.133,547.83 1246.285,550.614C1247.437,553.398 1248.949,555.774 1250.821,557.742C1252.693,559.71 1254.877,561.222 1257.373,562.278C1259.869,563.334 1262.509,563.862 1265.293,563.862Z" style="fill:rgb(121,194,87);fill-rule:nonzero;"/>
                </g>
                <g transform="matrix(1.3927,0,0,0.729139,-65.55186,1484.547398)">
                    <path d="M160.766,1071.104L160.766,1039.888L167.166,1039.888L167.166,1071.104L160.766,1071.104ZM151.342,1042.729L151.342,1036.736L176.55,1036.736L176.55,1042.729L151.342,1042.729Z" style="fill:rgb(56,56,56);fill-rule:nonzero;"/>
                    <g transform="matrix(1,0,0,1,34,0)">
                        <path d="M202.67,1071.104L202.67,1036.736L209.078,1036.736L209.078,1071.104L202.67,1071.104ZM181.238,1071.104L181.238,1036.736L187.638,1036.736L187.638,1071.104L181.238,1071.104ZM184.982,1056.568L184.982,1050.577L205.334,1050.577L205.334,1056.568L184.982,1056.568Z" style="fill:rgb(56,56,56);fill-rule:nonzero;"/>
                    </g>
                    <g transform="matrix(1,0,0,1,64.363381,0)">
                        <path d="M216.35,1071.104L216.35,1036.736L237.198,1036.736L237.198,1042.736L222.63,1042.736L222.63,1065.104L237.462,1065.104L237.462,1071.104L216.35,1071.104ZM219.814,1056.64L219.814,1051.232L236.446,1051.232L236.446,1056.64L219.814,1056.64Z" style="fill:rgb(56,56,56);fill-rule:nonzero;"/>
                    </g>
                    <g transform="matrix(1,0,0,1,112.363381,0)">
                        <path d="M254.846,1071.104L254.846,1036.736L261.694,1036.736L276.478,1060.064L276.638,1060.064L276.454,1053.968L276.454,1036.736L282.694,1036.736L282.694,1071.104L276.718,1071.104L261.07,1046.76L260.902,1046.76L261.086,1052.84L261.086,1071.104L254.846,1071.104Z" style="fill:rgb(56,56,56);fill-rule:nonzero;"/>
                    </g>
                    <g transform="matrix(1,0,0,1,143.363381,0)">
                        <path d="M305.962,1071.92C301.021,1071.92 296.821,1070.232 293.362,1066.856C289.903,1063.48 288.174,1059.151 288.174,1053.868C288.174,1048.586 289.912,1044.274 293.39,1040.933C296.867,1037.591 301.058,1035.92 305.962,1035.92C310.85,1035.92 315.035,1037.6 318.518,1040.96C322,1044.32 323.742,1048.624 323.742,1053.872C323.742,1059.083 322.014,1063.394 318.558,1066.805C315.102,1070.215 310.903,1071.92 305.962,1071.92ZM305.96,1065.736C309.191,1065.736 311.888,1064.616 314.054,1062.376C316.219,1060.136 317.302,1057.302 317.302,1053.872C317.302,1050.416 316.211,1047.591 314.03,1045.397C311.848,1043.202 309.158,1042.105 305.958,1042.105C302.763,1042.105 300.074,1043.209 297.89,1045.417C295.706,1047.625 294.614,1050.442 294.614,1053.87C294.614,1057.312 295.698,1060.15 297.865,1062.385C300.032,1064.619 302.73,1065.736 305.96,1065.736Z" style="fill:rgb(56,56,56);fill-rule:nonzero;"/>
                    </g>
                    <g transform="matrix(1,0,0,1,176.363381,0)">
                        <path d="M339.494,1071.92C337.43,1071.92 335.595,1071.594 333.99,1070.941C332.385,1070.287 331.05,1069.383 329.986,1068.229C328.922,1067.074 328.119,1065.854 327.578,1064.569C327.036,1063.283 326.766,1062.64 326.766,1062.64L332.374,1060.345C332.374,1060.345 332.565,1060.79 332.946,1061.681C333.327,1062.571 333.838,1063.382 334.478,1064.113C335.118,1064.843 335.891,1065.406 336.798,1065.8C337.705,1066.195 338.721,1066.393 339.846,1066.393C341.553,1066.393 342.945,1065.954 344.022,1065.077C345.099,1064.199 345.638,1063.046 345.638,1061.617C345.638,1060.369 345.045,1059.303 343.858,1058.42C342.671,1057.538 340.662,1056.627 337.83,1055.689C334.363,1054.537 331.858,1053.153 330.314,1051.537C328.77,1049.921 327.998,1047.921 327.998,1045.537C327.998,1042.79 329.078,1040.5 331.238,1038.668C333.398,1036.836 336.177,1035.92 339.574,1035.92C341.371,1035.92 342.983,1036.18 344.41,1036.7C345.837,1037.22 347.061,1037.964 348.082,1038.932C349.103,1039.9 349.844,1040.854 350.306,1041.793C350.767,1042.731 350.998,1043.2 350.998,1043.2L345.55,1045.465C345.55,1045.465 345.415,1045.203 345.146,1044.68C344.876,1044.158 344.456,1043.624 343.886,1043.08C343.315,1042.536 342.653,1042.122 341.898,1041.836C341.143,1041.551 340.289,1041.409 339.334,1041.409C337.846,1041.409 336.633,1041.761 335.694,1042.465C334.755,1043.169 334.286,1044.094 334.286,1045.24C334.286,1046.264 334.713,1047.154 335.566,1047.908C336.419,1048.663 338.526,1049.582 341.886,1050.664C345.315,1051.736 347.843,1053.174 349.47,1054.976C351.097,1056.779 351.91,1058.929 351.91,1061.425C351.91,1064.614 350.75,1067.16 348.43,1069.064C346.11,1070.968 343.131,1071.92 339.494,1071.92Z" style="fill:rgb(56,56,56);fill-rule:nonzero;"/>
                    </g>
                    <g transform="matrix(1,0,0,1,210.363381,0)">
                        <path d="M363.302,1071.104L363.302,1039.888L369.702,1039.888L369.702,1071.104L363.302,1071.104ZM353.878,1042.729L353.878,1036.736L379.086,1036.736L379.086,1042.729L353.878,1042.729Z" style="fill:rgb(56,56,56);fill-rule:nonzero;"/>
                    </g>
                    <g transform="matrix(1,0,0,1,249.363381,0)">
                        <path d="M376.982,1071.104L390.134,1036.736L396.246,1036.736L409.334,1071.104L402.318,1071.104L394.518,1048.777L393.198,1044.512L393.038,1044.512L391.718,1048.76L383.846,1071.104L376.982,1071.104ZM383.078,1063.504L384.894,1058.545L400.598,1058.545L402.486,1063.504L383.078,1063.504Z" style="fill:rgb(56,56,56);fill-rule:nonzero;"/>
                    </g>
                    <g transform="matrix(1,0,0,1,281.363381,0)">
                        <path d="M413.414,1071.104L413.414,1036.736L419.814,1036.736L419.814,1065.104L434.534,1065.104L434.534,1071.104L413.414,1071.104Z" style="fill:rgb(56,56,56);fill-rule:nonzero;"/>
                    </g>
                    <g transform="matrix(1,0,0,1,283.363381,0)">
                        <path d="M487.198,1071.92C482.121,1071.867 477.869,1070.114 474.442,1066.661C471.015,1063.207 469.302,1058.939 469.302,1053.856C469.302,1048.731 471.027,1044.46 474.478,1041.044C477.929,1037.628 482.185,1035.92 487.246,1035.92C488.862,1035.92 490.414,1036.095 491.902,1036.445C493.39,1036.794 494.734,1037.295 495.934,1037.948C497.134,1038.602 498.127,1039.3 498.914,1040.044C499.7,1040.788 500.094,1041.16 500.094,1041.16L495.822,1045.585C495.822,1045.585 495.53,1045.303 494.946,1044.74C494.362,1044.178 493.687,1043.684 492.922,1043.26C492.157,1042.836 491.302,1042.512 490.358,1042.288C489.414,1042.064 488.419,1041.952 487.374,1041.952C484.046,1041.952 481.267,1043.052 479.038,1045.252C476.809,1047.452 475.694,1050.346 475.694,1053.932C475.694,1057.519 476.818,1060.435 479.066,1062.68C481.314,1064.926 484.094,1066.048 487.406,1066.048C490.398,1066.048 492.85,1065.266 494.762,1063.7C496.674,1062.135 497.774,1059.955 498.062,1057.16L487.078,1057.16L487.078,1051.952L504.198,1051.952L504.23,1055.008C504.23,1060.112 502.654,1064.207 499.502,1067.293C496.35,1070.378 492.249,1071.92 487.198,1071.92Z" style="fill:rgb(56,56,56);fill-rule:nonzero;"/>
                    </g>
                    <g transform="matrix(1,0,0,1,315.363381,0)">
                        <rect x="508.886" y="1036.736" width="6.472" height="34.368" style="fill:rgb(56,56,56);fill-rule:nonzero;"/>
                    </g>
                    <g transform="matrix(1,0,0,1,346.363381,0)">
                        <path d="M538.758,1071.92C533.611,1071.92 529.337,1070.208 525.934,1066.784C522.531,1063.36 520.83,1059.051 520.83,1053.857C520.83,1048.646 522.536,1044.354 525.95,1040.981C529.363,1037.607 533.627,1035.92 538.742,1035.92C540.358,1035.92 541.929,1036.134 543.454,1036.561C544.979,1036.987 546.376,1037.583 547.646,1038.349C548.915,1039.114 549.903,1039.868 550.61,1040.612C551.316,1041.356 551.67,1041.728 551.67,1041.728L547.31,1046.072C547.31,1046.072 547.039,1045.783 546.498,1045.205C545.957,1044.626 545.299,1044.098 544.526,1043.621C543.752,1043.143 542.884,1042.771 541.922,1042.505C540.959,1042.238 539.91,1042.105 538.774,1042.105C535.505,1042.105 532.769,1043.185 530.566,1045.346C528.363,1047.508 527.262,1050.339 527.262,1053.841C527.262,1057.334 528.354,1060.187 530.538,1062.401C532.722,1064.614 535.462,1065.721 538.758,1065.721C539.926,1065.721 541.035,1065.557 542.086,1065.229C543.137,1064.901 544.125,1064.439 545.05,1063.844C545.975,1063.25 546.69,1062.662 547.194,1062.08C547.698,1061.499 547.95,1061.209 547.95,1061.209L552.43,1065.64C552.43,1065.64 552.043,1066.066 551.27,1066.916C550.496,1067.767 549.435,1068.593 548.086,1069.393C546.737,1070.193 545.275,1070.814 543.702,1071.256C542.129,1071.699 540.481,1071.92 538.758,1071.92Z" style="fill:rgb(56,56,56);fill-rule:nonzero;"/>
                    </g>
                    <g transform="matrix(1,0,0,1,399.363381,0)">
                        <path d="M578.102,1071.92C576.038,1071.92 574.203,1071.594 572.598,1070.941C570.993,1070.287 569.658,1069.383 568.594,1068.229C567.53,1067.074 566.727,1065.854 566.186,1064.569C565.644,1063.283 565.374,1062.64 565.374,1062.64L570.982,1060.345C570.982,1060.345 571.173,1060.79 571.554,1061.681C571.935,1062.571 572.446,1063.382 573.086,1064.113C573.726,1064.843 574.499,1065.406 575.406,1065.8C576.313,1066.195 577.329,1066.393 578.454,1066.393C580.161,1066.393 581.553,1065.954 582.63,1065.077C583.707,1064.199 584.246,1063.046 584.246,1061.617C584.246,1060.369 583.653,1059.303 582.466,1058.42C581.279,1057.538 579.27,1056.627 576.438,1055.689C572.971,1054.537 570.466,1053.153 568.922,1051.537C567.378,1049.921 566.606,1047.921 566.606,1045.537C566.606,1042.79 567.686,1040.5 569.846,1038.668C572.006,1036.836 574.785,1035.92 578.182,1035.92C579.979,1035.92 581.591,1036.18 583.018,1036.7C584.445,1037.22 585.669,1037.964 586.69,1038.932C587.711,1039.9 588.452,1040.854 588.914,1041.793C589.375,1042.731 589.606,1043.2 589.606,1043.2L584.158,1045.465C584.158,1045.465 584.023,1045.203 583.754,1044.68C583.484,1044.158 583.064,1043.624 582.494,1043.08C581.923,1042.536 581.261,1042.122 580.506,1041.836C579.751,1041.551 578.897,1041.409 577.942,1041.409C576.454,1041.409 575.241,1041.761 574.302,1042.465C573.363,1043.169 572.894,1044.094 572.894,1045.24C572.894,1046.264 573.321,1047.154 574.174,1047.908C575.027,1048.663 577.134,1049.582 580.494,1050.664C583.923,1051.736 586.451,1053.174 588.078,1054.976C589.705,1056.779 590.518,1058.929 590.518,1061.425C590.518,1064.614 589.358,1067.16 587.038,1069.064C584.718,1070.968 581.739,1071.92 578.102,1071.92Z" style="fill:rgb(56,56,56);fill-rule:nonzero;"/>
                    </g>
                    <g transform="matrix(1,0,0,1,430.363381,0)">
                        <rect x="595.622" y="1036.736" width="6.472" height="34.368" style="fill:rgb(56,56,56);fill-rule:nonzero;"/>
                    </g>
                    <g transform="matrix(1,0,0,1,459.363381,0)">
                        <path d="M609.374,1071.104L609.374,1036.736L620.862,1036.736C626.099,1036.736 630.319,1038.307 633.522,1041.449C636.725,1044.59 638.326,1048.733 638.326,1053.877C638.326,1059.069 636.727,1063.238 633.53,1066.385C630.332,1069.531 626.11,1071.104 620.862,1071.104L609.374,1071.104ZM615.774,1065.296L620.566,1065.296C624.054,1065.318 626.806,1064.327 628.822,1062.325C630.838,1060.322 631.846,1057.52 631.846,1053.918C631.846,1050.357 630.835,1047.596 628.814,1045.636C626.792,1043.676 624.043,1042.696 620.566,1042.696L615.774,1042.696L615.774,1065.296Z" style="fill:rgb(56,56,56);fill-rule:nonzero;"/>
                    </g>
                    <g transform="matrix(1,0,0,1,490.363381,0)">
                        <path d="M643.79,1071.104L643.79,1036.736L664.638,1036.736L664.638,1042.736L650.07,1042.736L650.07,1065.104L664.902,1065.104L664.902,1071.104L643.79,1071.104ZM647.254,1056.64L647.254,1051.232L663.886,1051.232L663.886,1056.64L647.254,1056.64Z" style="fill:rgb(56,56,56);fill-rule:nonzero;"/>
                    </g>
                    <g transform="matrix(1,0,0,1,540.363381,0)">
                        <path d="M698.266,1071.92C693.325,1071.92 689.125,1070.232 685.666,1066.856C682.207,1063.48 680.478,1059.151 680.478,1053.868C680.478,1048.586 682.216,1044.274 685.694,1040.933C689.171,1037.591 693.362,1035.92 698.266,1035.92C703.154,1035.92 707.339,1037.6 710.822,1040.96C714.304,1044.32 716.046,1048.624 716.046,1053.872C716.046,1059.083 714.318,1063.394 710.862,1066.805C707.406,1070.215 703.207,1071.92 698.266,1071.92ZM698.264,1065.736C701.495,1065.736 704.192,1064.616 706.358,1062.376C708.523,1060.136 709.606,1057.302 709.606,1053.872C709.606,1050.416 708.515,1047.591 706.334,1045.397C704.152,1043.202 701.462,1042.105 698.262,1042.105C695.067,1042.105 692.378,1043.209 690.194,1045.417C688.01,1047.625 686.918,1050.442 686.918,1053.87C686.918,1057.312 688.002,1060.15 690.169,1062.385C692.336,1064.619 695.034,1065.736 698.264,1065.736Z" style="fill:rgb(56,56,56);fill-rule:nonzero;"/>
                    </g>
                    <g transform="matrix(1,0,0,1,571.363381,0)">
                        <path d="M721.526,1071.104L721.526,1036.736L741.942,1036.736L741.942,1042.736L727.982,1042.736L727.982,1071.104L721.526,1071.104ZM725.142,1057.4L725.142,1051.736L741.254,1051.736L741.254,1057.4L725.142,1057.4Z" style="fill:rgb(56,56,56);fill-rule:nonzero;"/>
                    </g>
                    <g transform="matrix(1,0,0,1,623.363381,0)">
                        <path d="M755.414,1071.104L768.566,1036.736L774.678,1036.736L787.766,1071.104L780.75,1071.104L772.95,1048.777L771.63,1044.512L771.47,1044.512L770.15,1048.76L762.278,1071.104L755.414,1071.104ZM761.51,1063.504L763.326,1058.545L779.03,1058.545L780.918,1063.504L761.51,1063.504Z" style="fill:rgb(56,56,56);fill-rule:nonzero;"/>
                    </g>
                    <g transform="matrix(1,0,0,1,655.363381,0)">
                        <path d="M791.846,1071.104L791.846,1036.736L798.694,1036.736L813.478,1060.064L813.638,1060.064L813.454,1053.968L813.454,1036.736L819.694,1036.736L819.694,1071.104L813.718,1071.104L798.07,1046.76L797.902,1046.76L798.086,1052.84L798.086,1071.104L791.846,1071.104Z" style="fill:rgb(56,56,56);fill-rule:nonzero;"/>
                    </g>
                    <g transform="matrix(1,0,0,1,684.363381,0)">
                        <path d="M826.982,1071.104L826.982,1036.736L838.47,1036.736C843.707,1036.736 847.927,1038.307 851.13,1041.449C854.333,1044.59 855.934,1048.733 855.934,1053.877C855.934,1059.069 854.335,1063.238 851.138,1066.385C847.94,1069.531 843.718,1071.104 838.47,1071.104L826.982,1071.104ZM833.382,1065.296L838.174,1065.296C841.662,1065.318 844.414,1064.327 846.43,1062.325C848.446,1060.322 849.454,1057.52 849.454,1053.918C849.454,1050.357 848.443,1047.596 846.422,1045.636C844.4,1043.676 841.651,1042.696 838.174,1042.696L833.382,1042.696L833.382,1065.296Z" style="fill:rgb(56,56,56);fill-rule:nonzero;"/>
                    </g>
                    <g transform="matrix(1,0,0,1,715.363381,0)">
                        <path d="M861.398,1071.104L861.398,1036.736L874.294,1036.736C877.494,1036.736 880.222,1037.734 882.478,1039.729C884.734,1041.723 885.862,1044.326 885.862,1047.536C885.862,1050.662 884.77,1053.227 882.586,1055.233C880.402,1057.238 877.539,1058.24 873.998,1058.24L864.214,1058.24L864.214,1053.337L873.734,1053.337C875.297,1053.337 876.635,1052.818 877.75,1051.78C878.865,1050.742 879.422,1049.407 879.422,1047.776C879.422,1046.31 878.889,1045.063 877.822,1044.037C876.755,1043.01 875.473,1042.496 873.974,1042.496L867.798,1042.496L867.798,1071.104L861.398,1071.104ZM880.414,1071.104L870.222,1055.584L877.046,1055.344L887.958,1071.104L880.414,1071.104Z" style="fill:rgb(56,56,56);fill-rule:nonzero;"/>
                    </g>
                    <g transform="matrix(1,0,0,1,750.363381,0)">
                        <path d="M906.994,1071.92C902.053,1071.92 897.853,1070.232 894.394,1066.856C890.935,1063.48 889.206,1059.151 889.206,1053.868C889.206,1048.586 890.944,1044.274 894.422,1040.933C897.899,1037.591 902.09,1035.92 906.994,1035.92C911.882,1035.92 916.067,1037.6 919.55,1040.96C923.032,1044.32 924.774,1048.624 924.774,1053.872C924.774,1059.083 923.046,1063.394 919.59,1066.805C916.134,1070.215 911.935,1071.92 906.994,1071.92ZM906.992,1065.736C910.223,1065.736 912.92,1064.616 915.086,1062.376C917.251,1060.136 918.334,1057.302 918.334,1053.872C918.334,1050.416 917.243,1047.591 915.062,1045.397C912.88,1043.202 910.19,1042.105 906.99,1042.105C903.795,1042.105 901.106,1043.209 898.922,1045.417C896.738,1047.625 895.646,1050.442 895.646,1053.87C895.646,1057.312 896.73,1060.15 898.897,1062.385C901.064,1064.619 903.762,1065.736 906.992,1065.736Z" style="fill:rgb(56,56,56);fill-rule:nonzero;"/>
                    </g>
                    <g transform="matrix(1,0,0,1,780.363381,0)">
                        <rect x="930.254" y="1036.736" width="6.472" height="34.368" style="fill:rgb(56,56,56);fill-rule:nonzero;"/>
                    </g>
                    <g transform="matrix(1,0,0,1,809.363381,0)">
                        <path d="M944.006,1071.104L944.006,1036.736L955.494,1036.736C960.731,1036.736 964.951,1038.307 968.154,1041.449C971.357,1044.59 972.958,1048.733 972.958,1053.877C972.958,1059.069 971.359,1063.238 968.162,1066.385C964.964,1069.531 960.742,1071.104 955.494,1071.104L944.006,1071.104ZM950.406,1065.296L955.198,1065.296C958.686,1065.318 961.438,1064.327 963.454,1062.325C965.47,1060.322 966.478,1057.52 966.478,1053.918C966.478,1050.357 965.467,1047.596 963.446,1045.636C961.424,1043.676 958.675,1042.696 955.198,1042.696L950.406,1042.696L950.406,1065.296Z" style="fill:rgb(56,56,56);fill-rule:nonzero;"/>
                    </g>
                </g>
                <g transform="matrix(0.941749,0,0,0.523543,15.227889,1772.733653)">
                    <rect x="138.035" y="859.936" width="2411.965" height="16.288" style="fill:rgb(0,104,170);"/>
                </g>
                <g transform="matrix(2.06067,0,0,1.078851,785.879664,1160)">
                    <g transform="matrix(1.194976,0,0,1.194976,-292.020753,-181.228341)">
                        <path d="M514.435,588.63L442.85,621.574L244.374,506.065L244.374,434.627" style="fill:rgb(121,194,87);"/>
                    </g>
                    <g transform="matrix(1.194976,0,0,1.194976,-292.020753,-181.228341)">
                        <path d="M514.437,588.63L244.374,739.432L244.374,813.1L569.163,620.216" style="fill:rgb(121,194,87);"/>
                    </g>
                    <g transform="matrix(1.194976,0,0,1.194976,-292.020753,-181.228341)">
                        <path d="M244.374,506.065L302.662,550.347L302.662,652.136L244.374,690.764" style="fill:rgb(121,194,87);"/>
                    </g>
                    <g transform="matrix(-1.194976,0,0,1.194976,766.740385,-381.64023)">
                        <path d="M514.435,588.63L442.85,621.574L315.838,542.485L302.662,467.61" style="fill:rgb(121,194,87);"/>
                    </g>
                    <g transform="matrix(-1.194976,0,0,1.194976,766.740385,-381.64023)">
                        <path d="M514.437,588.63L244.374,739.432L244.374,813.1L569.163,620.216" style="fill:rgb(121,194,87);"/>
                    </g>
                    <g transform="matrix(-1.194976,0,0,1.194976,766.740385,-323.086415)">
                        <path d="M244.374,270.371L302.662,314.652L302.662,652.136L244.374,690.764" style="fill:rgb(121,194,87);"/>
                    </g>
                </g>
            </g>
        </g>
    </g>
</svg>
